<svg width="183" height="90" viewBox="0 0 183 90" fill="none" xmlns="http://www.w3.org/2000/svg">
  <path
    d="M72.6859 17.9981C70.7596 17.9981 68.7358 17.6331 67.1497 16.754V1.24411C68.711 0.389878 70.7347 2.85548e-05 72.6859 2.85548e-05C74.6371 2.85548e-05 76.6131 0.365035 78.1725 1.24411V7.19505H74.2453V3.14558C73.7828 2.95066 73.221 2.87804 72.6611 2.87804C72.1011 2.87804 71.5871 2.95066 71.0998 3.14558V14.8525C71.5622 15.0475 72.0992 15.1201 72.6611 15.1201C73.2229 15.1201 73.758 15.0475 74.2453 14.8525V10.805H78.1725V16.7559C76.636 17.6102 74.6122 17.9752 72.6859 18V17.9981Z"
    fill="#F7DD43" />
  <path
    d="M85.5377 17.9981C83.4642 17.9981 81.4653 17.5585 79.8791 16.6565V1.3167C81.4404 0.439536 83.4413 0 85.5377 0C87.634 0 89.5852 0.414693 91.1465 1.3167V16.6565C89.6101 17.5585 87.5863 17.9732 85.5377 17.9981ZM87.2213 3.19524C86.7588 3.00031 86.197 2.90285 85.5147 2.90285C84.8325 2.90285 84.2955 3.00031 83.8311 3.19524V14.7799C84.2936 14.9997 84.8554 15.0971 85.5147 15.0971C86.174 15.0971 86.734 14.9997 87.2213 14.7799V3.19524Z"
    fill="#F7DD43" />
  <path
    d="M97.9994 11.4127H96.9502V17.7783H92.9753V0.219779H97.9994C100.39 0.219779 102.194 0.707092 103.608 1.70656V9.92589C102.219 10.9024 100.388 11.4127 97.9994 11.4127ZM99.6582 3.24303C99.2932 2.97548 98.8039 2.85318 97.9745 2.85318H96.9005V8.77927H97.9745C98.7791 8.77927 99.2664 8.65697 99.6582 8.41427V3.24303Z"
    fill="#F7DD43" />
  <path
    d="M111.923 17.7783V11.4127H108.997V17.7783H105.047V1.29185C106.486 0.437625 108.51 0 110.461 0C112.412 0 114.411 0.439537 115.85 1.29185V17.7783H111.923ZM111.923 3.04809C111.508 2.85316 110.996 2.7557 110.459 2.7557C109.922 2.7557 109.41 2.85316 108.995 3.04809V8.63211H111.921V3.04809H111.923Z"
    fill="#F7DD43" />
  <path
    d="M76.208 40H83.1875V38.3525H78.9424L81.1982 35.9121C81.6904 35.3652 82.1097 34.8389 82.4561 34.333C82.807 33.8271 82.9824 33.2393 82.9824 32.5693C82.9779 31.7809 82.693 31.1292 82.1279 30.6143C81.5628 30.0993 80.722 29.8418 79.6055 29.8418C78.5573 29.8418 77.721 30.138 77.0967 30.7305C76.4723 31.3184 76.1602 32.0863 76.1602 33.0342V33.2666H78.2861V33.0684C78.2861 32.526 78.4069 32.1204 78.6484 31.8516C78.89 31.5781 79.2135 31.4414 79.6191 31.4414C80.0202 31.4414 80.321 31.5576 80.5215 31.79C80.7266 32.0179 80.8291 32.305 80.8291 32.6514C80.8291 33.0251 80.7197 33.3828 80.501 33.7246C80.2868 34.0664 79.986 34.4538 79.5986 34.8867L76.208 38.7285V40ZM84.083 36.5479C84.083 37.6416 84.3792 38.5234 84.9717 39.1934C85.5641 39.8633 86.4232 40.1982 87.5488 40.1982C88.6608 40.1982 89.5153 39.8633 90.1123 39.1934C90.7139 38.5234 91.0146 37.6416 91.0146 36.5479V33.4922C91.0146 32.3984 90.7161 31.5166 90.1191 30.8467C89.5267 30.1768 88.6699 29.8418 87.5488 29.8418C86.4232 29.8418 85.5641 30.179 84.9717 30.8535C84.3792 31.5234 84.083 32.403 84.083 33.4922V36.5479ZM86.25 36.7393V33.3076C86.25 32.7516 86.3503 32.3027 86.5508 31.9609C86.7559 31.6146 87.0908 31.4414 87.5557 31.4414C88.0205 31.4414 88.3532 31.6146 88.5537 31.9609C88.7542 32.3027 88.8545 32.7516 88.8545 33.3076V36.7393C88.8545 37.2952 88.7542 37.7464 88.5537 38.0928C88.3532 38.4346 88.0205 38.6055 87.5557 38.6055C87.0863 38.6055 86.7513 38.4346 86.5508 38.0928C86.3503 37.7464 86.25 37.2952 86.25 36.7393ZM92.0127 40H98.9922V38.3525H94.7471L97.0029 35.9121C97.4951 35.3652 97.9144 34.8389 98.2607 34.333C98.6117 33.8271 98.7871 33.2393 98.7871 32.5693C98.7826 31.7809 98.4977 31.1292 97.9326 30.6143C97.3675 30.0993 96.5267 29.8418 95.4102 29.8418C94.362 29.8418 93.5257 30.138 92.9014 30.7305C92.277 31.3184 91.9648 32.0863 91.9648 33.0342V33.2666H94.0908V33.0684C94.0908 32.526 94.2116 32.1204 94.4531 31.8516C94.6947 31.5781 95.0182 31.4414 95.4238 31.4414C95.8249 31.4414 96.1257 31.5576 96.3262 31.79C96.5312 32.0179 96.6338 32.305 96.6338 32.6514C96.6338 33.0251 96.5244 33.3828 96.3057 33.7246C96.0915 34.0664 95.7907 34.4538 95.4033 34.8867L92.0127 38.7285V40ZM99.915 40H106.895V38.3525H102.649L104.905 35.9121C105.397 35.3652 105.817 34.8389 106.163 34.333C106.514 33.8271 106.689 33.2393 106.689 32.5693C106.685 31.7809 106.4 31.1292 105.835 30.6143C105.27 30.0993 104.429 29.8418 103.312 29.8418C102.264 29.8418 101.428 30.138 100.804 30.7305C100.179 31.3184 99.8672 32.0863 99.8672 33.0342V33.2666H101.993V33.0684C101.993 32.526 102.114 32.1204 102.355 31.8516C102.597 31.5781 102.921 31.4414 103.326 31.4414C103.727 31.4414 104.028 31.5576 104.229 31.79C104.434 32.0179 104.536 32.305 104.536 32.6514C104.536 33.0251 104.427 33.3828 104.208 33.7246C103.994 34.0664 103.693 34.4538 103.306 34.8867L99.915 38.7285V40Z"
    fill="#F7DD43" />
  <path
    d="M14.7129 73.9248H19.0928C19.0049 75.3604 18.6094 76.6348 17.9062 77.748C17.2129 78.8613 16.2412 79.7305 14.9912 80.3555C13.751 80.9805 12.2568 81.293 10.5088 81.293C9.1416 81.293 7.91602 81.0586 6.83203 80.5898C5.74805 80.1113 4.82031 79.4277 4.04883 78.5391C3.28711 77.6504 2.70605 76.5762 2.30566 75.3164C1.90527 74.0566 1.70508 72.6455 1.70508 71.083V69.6035C1.70508 68.041 1.91016 66.6299 2.32031 65.3701C2.74023 64.1006 3.33594 63.0215 4.10742 62.1328C4.88867 61.2441 5.82129 60.5605 6.90527 60.082C7.98926 59.6035 9.2002 59.3643 10.5381 59.3643C12.3154 59.3643 13.8145 59.6865 15.0352 60.3311C16.2656 60.9756 17.2178 61.8643 17.8916 62.9971C18.5752 64.1299 18.9854 65.4189 19.1221 66.8643H14.7275C14.6787 66.0049 14.5078 65.2773 14.2148 64.6816C13.9219 64.0762 13.4775 63.6221 12.8818 63.3193C12.2959 63.0068 11.5146 62.8506 10.5381 62.8506C9.80566 62.8506 9.16602 62.9873 8.61914 63.2607C8.07227 63.5342 7.61328 63.9492 7.24219 64.5059C6.87109 65.0625 6.59277 65.7656 6.40723 66.6152C6.23145 67.4551 6.14355 68.4414 6.14355 69.5742V71.083C6.14355 72.1865 6.22656 73.1582 6.39258 73.998C6.55859 74.8281 6.8125 75.5312 7.1543 76.1074C7.50586 76.6738 7.95508 77.1035 8.50195 77.3965C9.05859 77.6797 9.72754 77.8213 10.5088 77.8213C11.4268 77.8213 12.1836 77.6748 12.7793 77.3818C13.375 77.0889 13.8291 76.6543 14.1416 76.0781C14.4639 75.502 14.6543 74.7842 14.7129 73.9248ZM30.6504 63.3193L24.8496 81H20.1768L28.1016 59.6719H31.0752L30.6504 63.3193ZM35.4697 81L29.6543 63.3193L29.1855 59.6719H32.1885L40.1572 81H35.4697ZM35.2061 73.0605V76.5029H23.9414V73.0605H35.2061ZM55.8457 77.5723V81H45.1084V77.5723H55.8457ZM46.5293 59.6719V81H42.1348V59.6719H46.5293ZM72.6768 77.5723V81H61.3242V77.5723H72.6768ZM62.7598 59.6719V81H58.3652V59.6719H62.7598ZM71.1973 68.3584V71.6982H61.3242V68.3584H71.1973ZM72.6621 59.6719V63.1143H61.3242V59.6719H72.6621ZM92.5986 59.6719V81H88.2041L79.6348 66.7031V81H75.2402V59.6719H79.6348L88.2188 73.9834V59.6719H92.5986ZM102.97 81H98.3262L98.3555 77.5723H102.97C104.122 77.5723 105.094 77.3135 105.885 76.7959C106.676 76.2686 107.271 75.502 107.672 74.4961C108.082 73.4902 108.287 72.2744 108.287 70.8486V69.8086C108.287 68.7148 108.17 67.7529 107.936 66.9229C107.711 66.0928 107.374 65.3945 106.925 64.8281C106.476 64.2617 105.924 63.8369 105.27 63.5537C104.615 63.2607 103.863 63.1143 103.014 63.1143H98.2383V59.6719H103.014C104.439 59.6719 105.743 59.916 106.925 60.4043C108.116 60.8828 109.146 61.5713 110.016 62.4697C110.885 63.3682 111.554 64.4424 112.022 65.6924C112.501 66.9326 112.74 68.3145 112.74 69.8379V70.8486C112.74 72.3623 112.501 73.7441 112.022 74.9941C111.554 76.2441 110.885 77.3184 110.016 78.2168C109.156 79.1055 108.126 79.7939 106.925 80.2822C105.733 80.7607 104.415 81 102.97 81ZM100.816 59.6719V81H96.4219V59.6719H100.816ZM124.283 63.3193L118.482 81H113.81L121.734 59.6719H124.708L124.283 63.3193ZM129.103 81L123.287 63.3193L122.818 59.6719H125.821L133.79 81H129.103ZM128.839 73.0605V76.5029H117.574V73.0605H128.839ZM121.808 58.4707L124.679 53.959H129.264L125.235 58.4707H121.808ZM135.768 59.6719H143.722C145.353 59.6719 146.754 59.916 147.926 60.4043C149.107 60.8926 150.016 61.6152 150.65 62.5723C151.285 63.5293 151.603 64.7061 151.603 66.1025C151.603 67.2451 151.407 68.2266 151.017 69.0469C150.636 69.8574 150.094 70.5361 149.391 71.083C148.697 71.6201 147.882 72.0498 146.944 72.3721L145.553 73.1045H138.639L138.609 69.6768H143.751C144.522 69.6768 145.162 69.54 145.67 69.2666C146.178 68.9932 146.559 68.6123 146.812 68.124C147.076 67.6357 147.208 67.0693 147.208 66.4248C147.208 65.7412 147.081 65.1504 146.827 64.6523C146.573 64.1543 146.188 63.7734 145.67 63.5098C145.152 63.2461 144.503 63.1143 143.722 63.1143H140.162V81H135.768V59.6719ZM147.691 81L142.828 71.4932L147.472 71.4639L152.394 80.7949V81H147.691ZM159.659 59.6719V81H155.279V59.6719H159.659ZM181.295 69.8379V70.8486C181.295 72.4697 181.075 73.9248 180.636 75.2139C180.196 76.5029 179.576 77.6016 178.775 78.5098C177.975 79.4082 177.018 80.0967 175.904 80.5752C174.801 81.0537 173.575 81.293 172.228 81.293C170.89 81.293 169.664 81.0537 168.551 80.5752C167.447 80.0967 166.49 79.4082 165.68 78.5098C164.869 77.6016 164.239 76.5029 163.79 75.2139C163.351 73.9248 163.131 72.4697 163.131 70.8486V69.8379C163.131 68.207 163.351 66.752 163.79 65.4727C164.229 64.1836 164.85 63.085 165.65 62.1768C166.461 61.2686 167.418 60.5752 168.521 60.0967C169.635 59.6182 170.86 59.3789 172.198 59.3789C173.546 59.3789 174.771 59.6182 175.875 60.0967C176.988 60.5752 177.945 61.2686 178.746 62.1768C179.557 63.085 180.182 64.1836 180.621 65.4727C181.07 66.752 181.295 68.207 181.295 69.8379ZM176.856 70.8486V69.8086C176.856 68.6758 176.754 67.6797 176.549 66.8203C176.344 65.9609 176.041 65.2383 175.641 64.6523C175.24 64.0664 174.752 63.627 174.176 63.334C173.6 63.0312 172.94 62.8799 172.198 62.8799C171.456 62.8799 170.797 63.0312 170.221 63.334C169.654 63.627 169.171 64.0664 168.771 64.6523C168.38 65.2383 168.082 65.9609 167.877 66.8203C167.672 67.6797 167.569 68.6758 167.569 69.8086V70.8486C167.569 71.9717 167.672 72.9678 167.877 73.8369C168.082 74.6963 168.385 75.4238 168.785 76.0195C169.186 76.6055 169.674 77.0498 170.25 77.3525C170.826 77.6553 171.485 77.8066 172.228 77.8066C172.97 77.8066 173.629 77.6553 174.205 77.3525C174.781 77.0498 175.265 76.6055 175.655 76.0195C176.046 75.4238 176.344 74.6963 176.549 73.8369C176.754 72.9678 176.856 71.9717 176.856 70.8486Z"
    fill="url(#paint0_linear_408_1063)" />
  <defs>
    <linearGradient id="paint0_linear_408_1063" x1="91.5" y1="52" x2="91.5" y2="90" gradientUnits="userSpaceOnUse">
      <stop stop-color="white" />
      <stop offset="1" stop-color="#D9D9D9" stop-opacity="0.8" />
    </linearGradient>
  </defs>
</svg>